# xmcd
#
# Track frame offsets:
#	150
#	35120
#	58665
#	76413
#	99465
#	101190
#	126690
#	129872
#	214455
#
# Disc length: 3251 seconds
#
# Revision: 1
# Processed by: cddbd v1.5.2PL0 Copyright (c) Steve Scherf et al.
# Submitted via: audiograbber 1.83.01
#
DISCID=880cb109
DTITLE=Duwayne Burnside - Live At The L.A. Mint
DYEAR=1998
DGENRE=Blues
TTITLE0=Bad Bad Pain
TTITLE1=Woman You Must Be Crazy
TTITLE2=Cross Cut Saw
TTITLE3=Well Well Well
TTITLE4=Lil Small Talk
TTITLE5=Dust My Broom
TTITLE6=Father and Son
TTITLE7=Hoochie Coochie Man
TTITLE8=Hard Candy
EXTD=YEAR: 1998
EXTT0=
EXTT1=
EXTT2=
EXTT3=
EXTT4=
EXTT5=
EXTT6=
EXTT7=
EXTT8=
PLAYORDER=
